<?xml version="1.0" encoding="UTF-8"?><svg id="a" xmlns="http://www.w3.org/2000/svg" viewBox="0 0 2844.09 550.2"><defs><style>.c{fill:#f2b51f;}.c,.d{fill-rule:evenodd;}.d{fill:#214e99;}</style></defs><g><path class="c" d="M2834.27,229.54c-10.89-22.46-29.8-33.69-56.66-33.69-14.48,0-27.02,2.88-37.54,8.96-10.41,5.97-21.26,16.49-32.86,30.96,3.61-14.47,6.24-27.25,8.25-38.37l23.19-132.32h-98.82l-66.12,377.41h101.02l2.39-20.22c0-1.33,.12-2.93,.37-4.98,.21-2.03,.46-4.42,.8-7.28,3.48,7.28,7.19,13.18,11.01,17.92,3.82,4.77,7.78,8.61,11.72,11.35,8.11,5.39,18.5,8.18,31.55,8.18,26.78,0,49.59-10.9,68.59-32.66,19-21.63,31.92-51.86,38.74-90.74,7.03-40.72,5.23-72.14-5.64-94.52Zm-96.16,92.49c-5.74,32.17-16.61,48.28-32.86,48.28-15.31,0-19.95-17.13-13.98-51.31,5.74-32.47,16.03-48.74,30.72-48.74,16.74,0,22.09,17.23,16.12,51.77Z"/><path class="d" d="M869.26,212.56c6.82-39.09-2.51-69.09-28.08-90.35-20.08-16.49-53.3-24.74-99.68-24.74h-105.2l-60.37,345h102.19l21.16-120.66,3.2-22.71c.95,4.63,1.79,8.84,2.39,12.14,.71,3.55,1.08,6.26,1.2,8.31l29.29,122.96h110.99l-51.18-143.41c42.08-16.03,66.83-44.82,74.11-86.53Zm-102.35,1.08c-2.14,12.67-7.88,23.06-17.21,31.3-9.33,8.13-19.95,12.21-31.8,12.21h-6.82l14.32-82.13h3.76c29.75,0,42.29,12.8,37.75,38.62Z"/><path class="d" d="M1117.67,231.08c-17.55-23.42-44.57-35.14-81.02-35.14s-68.72,12.18-96.09,36.44c-27.39,24.14-44.34,55.35-51.17,93.72-6.57,37.63-.94,67.28,16.74,89.15,17.94,21.39,45.9,32.2,84.02,32.2,32.27,0,59.54-7.07,82.01-21.46,22.48-14.23,39.55-35.33,51.4-63.43l-96.23-1.89c-5.5,11.31-13.77,16.91-24.99,16.91-14.23,0-19.83-12.27-16.61-37.04h144.87l3.22-15.89c6.82-38.85,1.43-70.02-16.14-93.58Zm-76.26,61.19h-46.02c1.56-8.93,4.9-16.21,10.25-21.97,5.28-5.73,11.38-8.59,18.2-8.59,3.34,0,6.2,.72,8.71,2.39,2.51,1.56,4.54,3.69,6.22,6.33,1.56,2.63,2.63,5.99,3.11,9.58,.46,3.82,.34,7.86-.48,12.27Z"/><path class="d" d="M1408.83,230.62c-12.07-23.19-30.96-34.92-56.54-34.92-6.95,0-13.27,.83-19.25,2.16-5.87,1.43-11.59,3.69-17.11,6.82-5.5,3.2-10.76,7.28-15.91,12.18-5.14,5.02-10.39,11.13-15.78,18.17l8.29-34.06h-98.85l-61.08,349.24h98.83l17.62-100.51c1.33-8.02,2.26-14.85,2.76-20.43,.83-5.51,1.41-11.97,2.01-19.62,13.5,25.19,32.17,37.79,56.19,37.79,26.3,0,48.89-11.29,67.76-33.85,19.21-22.46,32.13-52.9,38.95-91.55,6.57-38,3.94-68.47-7.9-91.41Zm-93.95,88.79c-2.88,16.61-7.28,29.64-13.13,38.79-5.96,9.21-12.55,13.91-19.94,13.91-14.85,0-19.25-17.37-13.17-51.91,5.97-33.79,16.49-50.76,31.8-50.76,7.42,0,12.42,4.44,14.81,13.15,2.51,8.71,2.39,20.87-.37,36.81Z"/><path class="d" d="M1677.6,230.55c-18.17-23.19-46.62-34.78-85.58-34.78s-68.59,11.72-95,34.91c-26.65,23.01-43.14,53.73-49.86,91.8-6.66,38.25-1.06,68.56,16.98,91.14,18.31,22.55,46.11,33.85,83.53,33.85s70.54-11.03,97.07-33.17c26.53-21.97,42.98-51.59,49.47-88.92,7.07-40.14,1.56-71.93-16.61-94.82Zm-78.76,91.89c-2.76,16.1-7.78,30.08-15.09,41.8-7.16,10.6-14.79,15.87-22.82,15.87-8.48,0-14.35-5.28-17.57-16.08-3.45-9.67-3.55-23.77-.25-42.21,3.22-18.75,8.24-32.86,14.93-42.19,7.07-10.75,14.72-16.12,23.08-16.12,4.31,0,7.88,1.43,10.76,4.28,3,2.76,5.28,6.82,6.82,11.97,1.56,5.14,2.39,11.35,2.51,18.54,0,7.12-.71,15.31-2.39,24.14Z"/><path class="d" d="M1810.75,442.5h-98.8l42.28-241.53h98.83l-13.49,47.09c21.14-35.25,49.02-52.96,83.44-52.96l-17.56,100.57c-9.88-5.42-18.63-8.05-26.16-8.05-13.28,0-24.26,4.41-32.86,13.03-8.72,8.72-14.63,21.39-17.44,38.12l-18.24,103.72Z"/><polygon class="d" points="2020.61 442.5 1921.67 442.5 1951.31 273.02 1923.23 273.02 1935.77 200.97 1963.86 200.97 1976.28 129.86 2075.35 129.86 2062.93 200.97 2095.7 200.97 2083 273.02 2050.26 273.02 2020.61 442.5"/><polygon class="c" points="2263.61 442.5 2083.74 442.5 2144.13 97.46 2246.88 97.46 2200.98 359.55 2278.05 359.55 2263.61 442.5"/><path class="c" d="M2469.8,200.96l-1.18,10.62-1.43,14.1c-.12,1.43-.37,3.36-.53,5.51-.18,2.39-.42,4.9-.67,8.01-11.13-29.04-30.01-43.39-56.42-43.39s-48.2,11.15-66.95,33.47c-18.88,21.97-31.67,52.23-38.37,90.68-6.91,39.82-5.14,71.05,5.39,93.51,10.64,22.55,28.45,33.97,53.41,33.97,28.79,0,54.29-15.31,76.62-45.72-1.22,4.56-2.76,10.41-4.44,17.69-1.77,7.32-3.82,14.95-6.08,23.06h99.06l42.35-241.53h-100.76Zm-16.97,94.89c-.49,6.26-1.33,13.91-3,22.82-6.33,36.48-17.36,54.81-32.98,54.81s-19.83-14.51-14.81-43.39c7.03-40.46,19-60.52,35.74-60.52,3.82,0,6.82,.81,9.08,2.49,2.39,1.7,4.07,4.54,5.02,8.48,.95,3.94,1.2,9.08,.95,15.31Z"/></g><path id="b" class="d" d="M258.48,0H90.64L48.03,241.7,0,488.89H419.32l42.76-229.67L258.48,0Zm102.07,410.04H85.52l31.69-163.12,.11-.58,.11-.59L149.64,63.08h75.29l7.79,9.98-31.81,174.68,175.55,8.31,10.28,13.1-26.17,140.89Z"/></svg>