<?xml version="1.0" encoding="utf-8"?>
<!-- Generator: Adobe Illustrator 27.5.0, SVG Export Plug-In . SVG Version: 6.00 Build 0)  -->
<svg version="1.1" id="Calque_1" xmlns="http://www.w3.org/2000/svg" xmlns:xlink="http://www.w3.org/1999/xlink" x="0px" y="0px"
	 viewBox="0 0 32 32" style="enable-background:new 0 0 32 32;" xml:space="preserve">
<style type="text/css">
	.st0{fill:#51485E;}
	.st1{enable-background:new    ;}
	.st2{fill:#FFFFFF;}
	.st3{fill:#64B28D;}
	.st4{fill:#FCC048;}
	.st5{fill:#F08572;}
</style>
<g>
	<path class="st0" d="M4.9,0h22.2C29.8,0,32,2.2,32,4.9v22.2c0,2.7-2.2,4.9-4.9,4.9H4.9C2.2,32,0,29.8,0,27.1V4.9C0,2.2,2.2,0,4.9,0
		z"/>
</g>
<g class="st1">
	<path class="st2" d="M7.6,25c-1.1,0-2.1-0.3-3-0.8c-0.9-0.5-1.6-1.5-2-2.7c-0.5-1.3-0.7-2.9-0.7-5.1s0.2-3.8,0.7-5.1
		c0.5-1.3,1.2-2.2,2-2.7c0.9-0.6,1.9-0.8,3-0.8c1.2,0,2.2,0.3,2.9,0.8c0.7,0.6,1.3,1.3,1.6,2.2c0.4,0.9,0.6,1.9,0.6,3
		c0.1,1.1,0.1,2.1,0,3.1H5.5v1.2c0,1.6,0.2,2.7,0.6,3.3C6.4,22,7,22.3,7.7,22.3c0.7,0,1.1-0.3,1.4-0.8c0.3-0.5,0.5-1.4,0.6-2.7
		l3.2,0.3c-0.1,2.2-0.7,3.7-1.6,4.6C10.3,24.6,9.1,25,7.6,25z M5.5,14.6L5.5,14.6l4.2,0.1v-0.2c0-1.5-0.2-2.6-0.5-3.1
		c-0.3-0.6-0.8-0.8-1.5-0.8c-0.7,0-1.2,0.3-1.6,0.9C5.7,12,5.5,13,5.5,14.6z"/>
</g>
<g>
	<rect x="26.2" y="12.6" class="st3" width="3.9" height="12"/>
</g>
<g>
	<rect x="20.8" y="9" class="st4" width="3.9" height="15.6"/>
</g>
<g>
	<rect x="12" y="17.1" transform="matrix(0.1233 -0.9924 0.9924 0.1233 -3.7723 33.8937)" class="st5" width="10.7" height="3.9"/>
</g>
</svg>
