<?xml version="1.0" encoding="utf-8"?>
<!-- Generator: Adobe Illustrator 23.0.2, SVG Export Plug-In . SVG Version: 6.00 Build 0)  -->
<svg version="1.1" xmlns="http://www.w3.org/2000/svg" xmlns:xlink="http://www.w3.org/1999/xlink" x="0px" y="0px"
	 viewBox="0 0 8222.039 2474.172" enable-background="new 0 0 8222.039 2474.172" xml:space="preserve">
<g id="Fond">
</g>
<g id="Aide">
	<g>
		<rect x="3385.181" y="1787.589" fill="#FFFFFF" width="356.306" height="678.718"/>
		<path fill="#EE2A49" d="M3749.352,2474.172h-372.035v-694.447h372.035V2474.172z M3393.046,2458.442h340.576v-662.988h-340.576
			V2458.442z"/>
	</g>
	<g>
		<rect x="7.865" y="10.706" fill="#FFFFFF" width="4813.77" height="1098.165"/>
		<path fill="#EE2A49" d="M4829.5,1116.737H0V2.841h4829.5V1116.737z M15.73,1101.007h4798.04V18.571H15.73V1101.007z"/>
	</g>
	<g>
		<path d="M493.071,343.87l10.848,37.966c11.877-13.947,26.853-25.182,44.94-33.705c18.075-8.523,36.671-12.785,55.788-12.785
			c16.005,0,30.472,1.042,43.39,3.1c12.906,2.07,28.148,6.465,45.715,13.172l-30.993,72.833
			c-12.397-5.157-24.153-8.777-35.255-10.847c-11.114-2.059-22.857-3.1-35.255-3.1c-21.695,0-39.649,7.627-53.85,22.857
			c-14.213,15.242-21.308,34.48-21.308,57.725v9.298h146.442v75.158H517.091v89.88h170.462v75.158H424.112V343.87H493.071z"/>
		<path d="M826.241,419.028l10.073,34.867c11.356-14.456,25.048-25.303,41.065-32.543c16.005-7.228,33.826-10.848,53.463-10.848
			c38.741,0,68.306,12.664,88.717,37.967c20.4,25.315,30.606,61.211,30.606,107.701v48.039c0,41.841-11.114,76.454-33.318,103.827
			c-22.216,27.385-51.913,41.065-89.105,41.065c-11.889,0-22.736-1.041-32.542-3.099c-9.819-2.07-19.371-5.169-28.669-9.298
			l13.947-68.959c4.128,1.041,8.523,1.816,13.172,2.324c4.649,0.521,8.777,0.775,12.397,0.775c18.075,0,31.114-5.291,39.128-15.884
			c8.002-10.582,12.01-27.506,12.01-50.751v-48.039c0-22.724-3.874-39.25-11.622-49.589c-7.749-10.327-20.412-15.497-37.967-15.497
			c-18.087,0-32.155,5.557-42.228,16.659c-10.073,11.114-15.109,26.731-15.109,46.877v325.427h-92.979V419.028H826.241z"/>
		<path d="M1122.988,740.58V280.333h92.979V740.58H1122.988z"/>
		<path d="M1288.796,604.986v-50.364c0-45.969,12.652-81.478,37.967-106.539c25.303-25.049,61.211-37.579,107.701-37.579
			s82.386,12.53,107.701,37.579c25.303,25.061,37.967,60.57,37.967,106.539v50.364c0,45.981-12.664,81.49-37.967,106.539
			c-25.315,25.061-61.211,37.579-107.701,37.579s-82.398-12.518-107.701-37.579C1301.447,686.476,1288.796,650.967,1288.796,604.986
			z M1487.926,607.31v-55.013c0-23.245-4.395-40.412-13.172-51.526c-8.79-11.102-22.216-16.659-40.291-16.659
			c-18.087,0-31.514,5.557-40.291,16.659c-8.789,11.114-13.172,28.281-13.172,51.526v55.013c0,23.765,4.261,41.065,12.784,51.913
			c8.523,10.848,22.083,16.271,40.678,16.271c18.596,0,32.155-5.424,40.678-16.271
			C1483.665,648.376,1487.926,631.076,1487.926,607.31z"/>
		<path d="M1843.569,604.986V419.028h92.979V740.58h-68.959l-10.073-34.867c-11.368,14.467-25.061,25.315-41.066,32.542
			c-16.017,7.228-33.838,10.848-53.463,10.848c-38.741,0-68.064-12.518-87.943-37.579c-19.891-25.048-29.831-61.078-29.831-108.088
			V419.028h92.979v184.408c0,22.736,3.741,39.262,11.235,49.589c7.482,10.339,19.758,15.496,36.804,15.496
			c18.075,0,32.155-5.544,42.228-16.659C1838.533,640.761,1843.569,625.131,1843.569,604.986z"/>
		<path d="M2093.835,419.028l15.496,51.913c10.327-19.104,23.499-33.572,39.516-43.39c16.005-9.807,34.346-14.722,55.012-14.722
			c5.678,0,11.623,0.387,17.821,1.162c6.199,0.775,12.652,1.937,19.371,3.487l-15.497,89.88c-6.719-1.029-12.397-1.804-17.046-2.325
			c-4.649-0.508-9.298-0.775-13.947-0.775c-23.765,0-42.494,7.749-56.175,23.245c-13.693,15.497-20.533,37.712-20.533,66.635V740.58
			h-92.979V419.028H2093.835z"/>
		<path d="M2332.474,381.836l-68.96-68.959l68.96-68.959l68.959,68.959L2332.474,381.836z M2285.984,740.58V419.028h92.979V740.58
			H2285.984z"/>
		<path d="M2467.289,740.58V280.333h92.979v324.652c0,19.637,4.77,35.134,14.334,46.49c9.552,11.368,22.337,17.046,38.354,17.046
			c18.075,0,31.635-5.544,40.678-16.659c9.031-11.102,13.559-27.76,13.559-49.976v-55.013c0-19.625-3.62-34.213-10.848-43.778
			c-7.24-9.552-18.596-14.334-34.092-14.334c-4.14,0-8.269,0.387-12.397,1.162c-4.14,0.775-9.298,1.937-15.497,3.487l-19.371-65.86
			c10.848-6.199,21.695-10.582,32.543-13.172c10.848-2.579,22.204-3.874,34.092-3.874c37.7,0,66.889,12.143,87.555,36.417
			c20.654,24.286,30.993,57.604,30.993,99.953v55.013c0,43.911-10.981,79.419-32.93,106.539
			c-21.961,27.119-52.047,40.678-90.267,40.678c-20.666,0-38.487-3.62-53.463-10.848c-14.988-7.228-27.385-18.075-37.192-32.542
			l-10.073,34.867H2467.289z"/>
		<path d="M2817.498,604.986v-50.364c0-45.969,12.652-81.478,37.967-106.539c25.303-25.049,61.211-37.579,107.701-37.579
			s82.386,12.53,107.701,37.579c25.303,25.061,37.967,60.57,37.967,106.539v50.364c0,45.981-12.664,81.49-37.967,106.539
			c-25.315,25.061-61.211,37.579-107.701,37.579s-82.398-12.518-107.701-37.579C2830.15,686.476,2817.498,650.967,2817.498,604.986z
			 M3016.628,607.31v-55.013c0-23.245-4.395-40.412-13.172-51.526c-8.79-11.102-22.216-16.659-40.291-16.659
			c-18.087,0-31.514,5.557-40.291,16.659c-8.79,11.114-13.172,28.281-13.172,51.526v55.013c0,23.765,4.261,41.065,12.785,51.913
			c8.523,10.848,22.083,16.271,40.678,16.271s32.155-5.424,40.678-16.271C3012.367,648.376,3016.628,631.076,3016.628,607.31z"/>
		<path d="M3372.272,604.986V419.028h92.979V740.58h-68.959l-10.073-34.867c-11.368,14.467-25.061,25.315-41.066,32.542
			c-16.017,7.228-33.838,10.848-53.463,10.848c-38.741,0-68.063-12.518-87.943-37.579c-19.891-25.048-29.831-61.078-29.831-108.088
			V419.028h92.979v184.408c0,22.736,3.741,39.262,11.235,49.589c7.482,10.339,19.758,15.496,36.804,15.496
			c18.076,0,32.155-5.544,42.228-16.659C3367.235,640.761,3372.272,625.131,3372.272,604.986z"/>
		<path d="M3565.2,575.542c-10.848-8.777-18.983-18.717-24.407-29.831c-5.424-11.102-8.136-23.366-8.136-36.805
			c0-29.952,11.489-53.85,34.48-71.671c22.979-17.821,52.034-26.731,87.168-26.731c20.654,0,41.187,2.325,61.599,6.974
			c20.4,4.649,38.862,11.368,55.4,20.146l-33.318,69.734c-14.467-7.228-28.414-12.651-41.84-16.271
			c-13.438-3.608-25.836-5.424-37.192-5.424c-11.368,0-19.891,1.816-25.569,5.424c-5.69,3.62-8.523,8.79-8.523,15.497
			c0,5.169,2.058,9.431,6.199,12.785c4.128,3.366,18.596,11.235,43.39,23.632c41.32,20.146,67.918,37.579,79.807,52.301
			c11.876,14.722,17.821,34.226,17.821,58.499c0,29.444-11.501,52.688-34.479,69.734c-22.991,17.046-52.821,25.569-89.493,25.569
			c-21.187,0-40.945-1.549-59.274-4.649c-18.342-3.099-38.621-8.777-60.824-17.046l27.119-72.834
			c17.046,6.719,32.93,11.623,47.652,14.722c14.722,3.1,28.79,4.649,42.228,4.649c11.356,0,20.399-2.058,27.119-6.198
			c6.708-4.128,10.073-9.552,10.073-16.271c0-5.678-1.937-10.46-5.811-14.334s-18.475-11.743-43.778-23.632
			c-22.216-10.327-37.458-17.942-45.715-22.857C3578.626,585.748,3571.399,580.712,3565.2,575.542z"/>
		<path d="M3849.553,575.542c-10.848-8.777-18.983-18.717-24.407-29.831c-5.424-11.102-8.136-23.366-8.136-36.805
			c0-29.952,11.489-53.85,34.48-71.671c22.979-17.821,52.034-26.731,87.168-26.731c20.654,0,41.187,2.325,61.599,6.974
			c20.4,4.649,38.862,11.368,55.4,20.146l-33.318,69.734c-14.467-7.228-28.414-12.651-41.84-16.271
			c-13.438-3.608-25.836-5.424-37.192-5.424c-11.368,0-19.891,1.816-25.569,5.424c-5.69,3.62-8.523,8.79-8.523,15.497
			c0,5.169,2.058,9.431,6.199,12.785c4.128,3.366,18.596,11.235,43.39,23.632c41.32,20.146,67.918,37.579,79.807,52.301
			c11.876,14.722,17.821,34.226,17.821,58.499c0,29.444-11.501,52.688-34.479,69.734c-22.991,17.046-52.821,25.569-89.493,25.569
			c-21.187,0-40.945-1.549-59.274-4.649c-18.342-3.099-38.621-8.777-60.824-17.046l27.119-72.834
			c17.046,6.719,32.93,11.623,47.652,14.722c14.722,3.1,28.79,4.649,42.228,4.649c11.356,0,20.399-2.058,27.119-6.198
			c6.708-4.128,10.073-9.552,10.073-16.271c0-5.678-1.937-10.46-5.811-14.334s-18.475-11.743-43.778-23.632
			c-22.216-10.327-37.458-17.942-45.715-22.857C3862.979,585.748,3855.752,580.712,3849.553,575.542z"/>
		<path d="M4106.787,604.986v-50.364c0-45.969,12.651-81.478,37.967-106.539c25.303-25.049,61.211-37.579,107.701-37.579
			c45.969,0,81.744,12.918,107.313,38.741c25.569,25.836,38.354,62.252,38.354,109.251c0,9.298-0.133,17.7-0.388,25.182
			c-0.266,7.494-0.908,17.179-1.937,29.056h-196.806c0,22.215,5.424,38.62,16.271,49.201c10.847,10.593,27.627,15.884,50.363,15.884
			c11.877,0,25.824-1.804,41.841-5.424c16.005-3.608,29.698-8.002,41.066-13.172l30.218,65.085
			c-18.087,8.79-36.55,15.109-55.4,18.983c-18.862,3.874-40.424,5.811-64.698,5.811c-49.081,0-86.66-12.397-112.737-37.191
			C4119.826,687.118,4106.787,651.475,4106.787,604.986z M4306.692,547.649v-3.1c0-22.724-4.528-39.516-13.56-50.364
			c-9.043-10.847-22.603-16.271-40.678-16.271c-17.567,0-30.872,5.557-39.903,16.659c-9.044,11.114-13.56,27.772-13.56,49.976v3.1
			H4306.692z"/>
	</g>
	<g>
		<rect x="4821.635" y="10.706" fill="#FFFFFF" width="2888.353" height="1098.165"/>
		<path fill="#EE2A49" d="M7717.853,1116.736H4813.77V2.841h2904.083V1116.736z M4829.5,1101.006h2872.623V18.571H4829.5V1101.006z"
			/>
	</g>
	<g>
		<rect x="7709.987" y="10.706" fill="#FFFFFF" width="134.538" height="1098.165"/>
		<path fill="#EE2A49" d="M7852.391,1116.736h-150.269V2.841h150.269V1116.736z M7717.853,1101.007h118.808V18.571h-118.808
			V1101.007z"/>
	</g>
	<g>
		<rect x="7844.525" y="10.706" fill="#FFFFFF" width="369.649" height="1098.165"/>
		<path fill="#EE2A49" d="M8222.039,1116.736H7836.66V2.841h385.379V1116.736z M7852.391,1101.007h353.918V18.571h-353.918V1101.007
			z"/>
	</g>
	<g>
		<path fill="#EE2A49" d="M5243.421,741.355V281.108h640.781v460.247H5243.421z M5294.56,697.19h538.504V325.273H5294.56V697.19z
			 M5471.995,593.364L5336.4,536.801v-50.364l135.595-56.563v45.715l-88.33,35.642l88.33,35.642V593.364z M5537.855,647.601
			l-38.742-13.947l93.754-258.792l38.741,14.722L5537.855,647.601z M5655.629,593.364v-45.715l88.33-35.642l-88.33-35.642v-46.49
			l135.595,56.563v50.364L5655.629,593.364z"/>
		<path fill="#EE2A49" d="M6124.398,680.919v-43.39h206.879l-258.018-258.792l31.768-31.768l257.242,257.242V398.107h44.94v282.812
			H6124.398z"/>
		<path fill="#EE2A49" d="M6893.8,768.474c-17.046-10.847-39.649-18.475-67.797-22.857c-28.16-4.395-68.572-6.586-121.26-6.586
			c-14.988,0-45.715,0.521-92.204,1.55V377.187c43.39-3.1,80.582-4.383,111.575-3.874v-92.979
			c40.291-2.579,73.609-3.874,99.953-3.874c82.64,0,142.823,12.918,180.535,38.741c38.221-25.823,98.657-38.741,181.31-38.741
			c26.344,0,59.661,1.295,99.952,3.874v363.394c-57.857-1.029-95.049-1.549-111.575-1.549v98.403
			c-46.489-1.029-76.974-1.55-91.429-1.55c-52.688,0-93.112,2.191-121.261,6.586C6933.438,749.999,6910.847,757.627,6893.8,768.474z
			 M6869.781,711.912v-68.959c-4.649,0-12.918-0.121-24.794-0.388c-11.889-0.254-21.187-0.387-27.894-0.387
			c-15.497,0-46.49,0.521-92.979,1.549V417.478c-11.368,0-31.514,1.041-60.437,3.099v275.063
			c11.356-0.508,28.669-0.775,51.914-0.775C6788.933,694.866,6840.337,700.556,6869.781,711.912z M6981.355,610.41V351.618
			c-27.894-20.654-74.649-30.993-140.243-30.993c-12.918,0-34.867,1.042-65.86,3.1v275.063c12.397-0.508,31.247-0.774,56.563-0.774
			C6902.057,598.013,6951.912,602.153,6981.355,610.41z M6944.164,436.074c-28.414-8.777-64.311-13.172-107.701-13.172
			c-12.397,0-21.187,0.266-26.344,0.775v-40.291c5.157-0.509,13.947-0.775,26.344-0.775c43.39,0,79.287,4.395,107.701,13.172
			V436.074z M6944.164,521.305c-35.133-4.649-69.734-6.974-103.827-6.974c-14.467,0-24.54,0.267-30.218,0.775v-40.291
			c5.678-0.508,15.751-0.775,30.218-0.775c34.092,0,68.693,2.325,103.827,6.974V521.305z M6917.045,711.912
			c29.443-11.356,80.836-17.046,154.19-17.046c23.245,0,40.546,0.267,51.914,0.775v-52.688c-54.238,2.07-93.5,7.24-117.774,15.496
			c-21.694-7.228-51.138-11.876-88.33-13.947V711.912z M7028.62,610.41c29.443-8.257,79.287-12.397,149.542-12.397
			c25.303,0,44.165,0.266,56.562,0.774V323.724c-30.992-2.058-52.954-3.1-65.859-3.1c-65.606,0-112.351,10.339-140.244,30.993
			V610.41z M7065.812,423.677v-40.291c28.402-8.777,64.311-13.172,107.701-13.172c12.397,0,21.175,0.267,26.344,0.775v40.291
			c-5.169-0.508-13.946-0.775-26.344-0.775C7130.122,410.504,7094.214,414.899,7065.812,423.677z M7065.812,508.907v-40.291
			c35.122-4.649,69.734-6.974,103.827-6.974c14.455,0,24.528,0.266,30.218,0.775v40.291c-5.689-0.509-15.763-0.775-30.218-0.775
			C7135.546,501.934,7100.934,504.258,7065.812,508.907z"/>
	</g>
	<g>
		<rect x="1364.514" y="1108.871" fill="#FFFFFF" width="1937.517" height="678.718"/>
		<path fill="#EE2A49" d="M3309.896,1795.454H1356.649v-694.447h1953.247V1795.454z M1372.379,1779.724h1921.787v-662.988H1372.379
			V1779.724z"/>
	</g>
	<g>
		<path d="M1769.747,1469.939v-153.241h31.606v153.241c0,31.292-7.505,54.996-22.507,71.114
			c-15.01,16.125-37.038,24.183-66.085,24.183c-29.376,0-51.479-8.059-66.325-24.183c-14.845-16.118-22.268-39.822-22.268-71.114
			v-153.241h31.606v153.241c0,22.672,4.624,39.507,13.887,50.522c9.256,11.014,23.622,16.521,43.099,16.521
			c19.155,0,33.439-5.507,42.86-16.521C1765.033,1509.447,1769.747,1492.611,1769.747,1469.939z"/>
		<path d="M1888.982,1316.698h23.465v45.494h40.226v26.817h-40.226v110.142c0,12.451,2.155,21.55,6.465,27.296
			c4.31,5.747,11.254,8.62,20.831,8.62c1.594,0,3.509-0.075,5.747-0.239c2.23-0.157,4.467-0.396,6.704-0.718l2.873,28.254
			c-2.559,0.314-5.35,0.554-8.38,0.718c-3.038,0.157-5.829,0.239-8.38,0.239c-19.155,0-33.522-5.342-43.099-16.042
			c-9.578-10.692-14.366-26.735-14.366-48.127v-110.142h-40.226v-26.817c18.512,0,30.723-3.113,36.634-9.338
			C1883.154,1346.628,1887.067,1334.581,1888.982,1316.698z"/>
		<path d="M2020.192,1334.416l-28.254-28.254l28.254-28.253l28.254,28.253L2020.192,1334.416z M2004.389,1559.969v-197.777h31.606
			v197.777H2004.389z"/>
		<path d="M2102.077,1559.969v-284.454h31.606v284.454H2102.077z"/>
		<path d="M2215.569,1334.416l-28.254-28.254l28.254-28.253l28.254,28.253L2215.569,1334.416z M2199.766,1559.969v-197.777h31.606
			v197.777H2199.766z"/>
		<path d="M2322.835,1316.698h23.465v45.494h40.226v26.817H2346.3v110.142c0,12.451,2.155,21.55,6.465,27.296
			c4.31,5.747,11.254,8.62,20.831,8.62c1.594,0,3.509-0.075,5.747-0.239c2.23-0.157,4.467-0.396,6.704-0.718l2.873,28.254
			c-2.559,0.314-5.35,0.554-8.38,0.718c-3.038,0.157-5.829,0.239-8.38,0.239c-19.155,0-33.522-5.342-43.099-16.042
			c-9.578-10.692-14.366-26.735-14.366-48.127v-110.142h-40.226v-26.817c18.512,0,30.723-3.113,36.634-9.338
			C2317.006,1346.628,2320.92,1334.581,2322.835,1316.698z"/>
		<path d="M2445.425,1397.15l-10.535-25.859c13.087-5.747,24.58-9.578,34.479-11.493c9.892-1.916,20.906-2.874,33.043-2.874
			c22.343,0,39.665,6.226,51.958,18.676c12.286,12.451,18.437,29.855,18.437,52.198v132.17h-24.423l-6.226-21.55
			c-7.984,9.264-16.604,16.042-25.859,20.353c-9.263,4.31-19.477,6.465-30.648,6.465c-20.757,0-36.717-5.342-47.888-16.042
			c-11.179-10.692-16.761-25.62-16.761-44.775c0-22.986,9.338-39.665,28.014-50.043c18.676-10.371,49.399-15.721,92.184-16.042
			v-10.535c0-14.367-3.517-25.142-10.535-32.325c-7.026-7.183-17.719-10.774-32.085-10.774c-8.306,0-16.604,0.958-24.902,2.873
			C2465.373,1389.488,2455.96,1392.682,2445.425,1397.15z M2487.566,1537.461c15.96,0,28.89-4.385,38.789-13.169
			c9.892-8.777,14.845-20.989,14.845-36.634v-24.902c-33.843,0.644-57.069,3.996-69.677,10.056
			c-12.615,6.068-18.916,16.604-18.916,31.606c0,10.535,3.113,18.676,9.338,24.423S2476.709,1537.461,2487.566,1537.461z"/>
		<path d="M2651.336,1334.416l-28.254-28.254l28.254-28.253l28.254,28.253L2651.336,1334.416z M2635.533,1559.969v-197.777h31.606
			v197.777H2635.533z"/>
		<path d="M2757.645,1362.192l7.183,24.422c6.061-9.577,13.723-16.917,22.986-22.028c9.256-5.103,19.469-7.662,30.648-7.662
			c6.061,0,12.047,0.644,17.958,1.916c5.904,1.28,11.254,3.195,16.042,5.747l-12.93,27.775c-4.153-1.916-8.38-3.352-12.69-4.31
			c-4.31-0.958-8.702-1.437-13.169-1.437c-14.688,0-26.503,5.193-35.437,15.564c-8.941,10.378-13.408,24.505-13.408,42.381v115.41
			h-31.606v-197.777H2757.645z"/>
		<path d="M2883.109,1488.616v-53.156c0-24.58,6.779-43.817,20.352-57.705c13.566-13.888,32.803-20.832,57.705-20.832
			s44.132,6.944,57.705,20.832c13.565,13.887,20.352,33.125,20.352,57.705c0,8.62-0.082,15.968-0.239,22.029
			c-0.165,6.068-0.561,11.814-1.197,17.239h-123.072v13.888c0,16.925,4.07,29.294,12.211,37.113
			c8.141,7.827,21.146,11.732,39.028,11.732c6.383,0,13.806-1.115,22.268-3.352c8.455-2.23,18.272-5.582,29.451-10.057
			l11.972,26.338c-12.137,5.432-23.151,9.263-33.043,11.493c-9.899,2.23-20.113,3.352-30.648,3.352
			c-27.46,0-48.127-6.382-62.015-19.155C2890.053,1533.316,2883.109,1514.161,2883.109,1488.616z M3007.618,1447.432v-11.972
			c0-16.917-3.996-29.765-11.972-38.55c-7.984-8.777-19.477-13.169-34.479-13.169c-15.01,0-26.503,4.392-34.479,13.169
			c-7.983,8.785-11.972,21.632-11.972,38.55v11.972H3007.618z"/>
	</g>
	<g>
		<rect x="3302.031" y="1108.871" fill="#FFFFFF" width="4912.144" height="678.718"/>
		<path fill="#EE2A49" d="M8222.039,1795.454H3294.166v-694.447h4927.874V1795.454z M3309.896,1779.724h4896.413v-662.987H3309.896
			V1779.724z"/>
	</g>
	<g>
		<path d="M3588.982,1362.192l6.225,21.07c6.383-8.62,14.202-15.159,23.465-19.634c9.256-4.467,19.634-6.705,31.127-6.705
			c22.665,0,40.144,6.869,52.438,20.592c12.286,13.73,18.437,32.407,18.437,56.029v55.071c0,23.944-6.465,42.703-19.395,56.269
			c-12.93,13.573-31.052,20.352-54.353,20.352c-5.747,0-11.418-0.561-17-1.676c-5.589-1.123-11.418-2.799-17.479-5.028l4.789-23.944
			c5.746,1.279,10.535,2.155,14.366,2.634c3.831,0.479,7.498,0.718,11.014,0.718c15.324,0,26.892-4.146,34.719-12.451
			c7.819-8.298,11.732-20.592,11.732-36.874v-55.071c0-15.96-3.756-28.089-11.253-36.395c-7.505-8.298-18.437-12.451-32.803-12.451
			c-15.324,0-27.296,4.953-35.916,14.845c-8.62,9.899-12.93,23.465-12.93,40.705v205.918h-31.606v-283.975H3588.982z"/>
		<path d="M3774.307,1486.7v-51.24c0-24.58,6.861-43.817,20.592-57.705c13.723-13.888,33.2-20.832,58.423-20.832
			c25.216,0,44.693,6.944,58.423,20.832c13.723,13.887,20.592,33.125,20.592,57.705v51.24c0,24.587-6.869,43.817-20.592,57.705
			c-13.73,13.887-33.207,20.831-58.423,20.831c-25.224,0-44.701-6.944-58.423-20.831
			C3781.168,1530.517,3774.307,1511.287,3774.307,1486.7z M3900.731,1486.7v-51.24c0-16.917-3.996-29.69-11.972-38.31
			c-7.984-8.62-19.799-12.93-35.437-12.93c-15.646,0-27.461,4.31-35.438,12.93c-7.983,8.62-11.972,21.393-11.972,38.31v51.24
			c0,16.925,3.988,29.69,11.972,38.311c7.977,8.62,19.792,12.93,35.438,12.93c15.638,0,27.453-4.31,35.437-12.93
			C3896.735,1516.391,3900.731,1503.625,3900.731,1486.7z"/>
		<path d="M4112.868,1481.911v-119.72h31.606v197.777h-24.423l-6.226-21.071c-6.39,8.62-14.209,15.167-23.465,19.634
			c-9.263,4.467-19.634,6.704-31.127,6.704c-22.672,0-40.151-6.861-52.438-20.592c-12.293-13.723-18.437-32.399-18.437-56.029
			v-126.424h31.606v126.424c0,15.968,3.749,28.097,11.253,36.395c7.498,8.305,18.437,12.451,32.803,12.451
			c15.324,0,27.296-4.946,35.916-14.845C4108.558,1512.724,4112.868,1499.151,4112.868,1481.911z"/>
		<path d="M4234.018,1362.192l7.183,24.422c6.061-9.577,13.723-16.917,22.986-22.028c9.255-5.103,19.469-7.662,30.648-7.662
			c6.061,0,12.047,0.644,17.958,1.916c5.904,1.28,11.254,3.195,16.042,5.747l-12.93,27.775c-4.153-1.916-8.38-3.352-12.69-4.31
			c-4.31-0.958-8.702-1.437-13.169-1.437c-14.688,0-26.503,5.193-35.437,15.564c-8.942,10.378-13.409,24.505-13.409,42.381v115.41
			h-31.606v-197.777H4234.018z"/>
		<path d="M4461.004,1559.969v-284.454h31.606v284.454H4461.004z"/>
		<path d="M4551.989,1488.616v-53.156c0-24.58,6.779-43.817,20.352-57.705c13.566-13.888,32.803-20.832,57.705-20.832
			s44.132,6.944,57.705,20.832c13.565,13.887,20.352,33.125,20.352,57.705c0,8.62-0.082,15.968-0.239,22.029
			c-0.165,6.068-0.561,11.814-1.197,17.239h-123.072v13.888c0,16.925,4.07,29.294,12.211,37.113
			c8.141,7.827,21.146,11.732,39.028,11.732c6.383,0,13.806-1.115,22.268-3.352c8.455-2.23,18.272-5.582,29.451-10.057
			l11.972,26.338c-12.137,5.432-23.151,9.263-33.043,11.493c-9.899,2.23-20.113,3.352-30.648,3.352
			c-27.46,0-48.127-6.382-62.015-19.155C4558.932,1533.316,4551.989,1514.161,4551.989,1488.616z M4676.497,1447.432v-11.972
			c0-16.917-3.996-29.765-11.972-38.55c-7.984-8.777-19.477-13.169-34.479-13.169c-15.01,0-26.503,4.392-34.479,13.169
			c-7.983,8.785-11.972,21.632-11.972,38.55v11.972H4676.497z"/>
		<path d="M4976.749,1473.291l34.958-197.777h31.606l-49.803,284.454h-24.423l-1.916-21.071
			c-7.984,8.942-16.761,15.563-26.338,19.874s-19.956,6.465-31.127,6.465c-22.986,0-39.829-7.019-50.521-21.071
			c-10.7-14.044-13.97-32.563-9.817-55.55l10.056-55.55c4.146-24.258,13.566-43.017,28.254-56.269
			c14.681-13.244,33.521-19.874,56.508-19.874c6.382,0,12.847,0.801,19.395,2.395c6.54,1.601,12.211,3.831,17,6.704l-10.536,22.986
			c-3.831-1.594-7.984-2.791-12.451-3.591c-4.475-0.793-9.099-1.197-13.888-1.197c-15.01,0-26.817,4.07-35.437,12.211
			c-8.62,8.141-14.366,20.352-17.24,36.634l-10.056,55.55c-2.559,15.968-0.801,28.097,5.268,36.395
			c6.061,8.305,16.117,12.451,30.169,12.451c15.96,0,29.047-5.425,39.268-16.282
			C4965.892,1510.33,4972.918,1494.362,4976.749,1473.291z"/>
		<path d="M5065.337,1488.137l9.099-52.677c4.467-25.216,14.366-44.61,29.69-58.184c15.324-13.566,35.272-20.353,59.86-20.353
			c25.216,0,43.735,7.108,55.55,21.31c11.807,14.209,15.481,33.282,11.014,57.226c-1.602,9.264-2.874,16.843-3.831,22.747
			c-0.958,5.911-2.08,11.418-3.352,16.521h-124.03l-2.395,13.409c-2.873,16.926-0.883,29.376,5.986,37.353
			c6.862,7.984,19.073,11.972,36.634,11.972c6.061,0,13.169-1.033,21.311-3.113c8.141-2.073,18.594-5.507,31.366-10.296
			l9.099,25.859c-15.324,6.39-27.46,10.536-36.395,12.451c-8.941,1.916-18.197,2.873-27.775,2.873
			c-27.461,0-47.334-6.704-59.621-20.113C5065.254,1531.715,5061.184,1512.724,5065.337,1488.137z M5197.507,1447.432l1.916-11.972
			c2.874-16.917,1.115-29.765-5.268-38.55c-6.39-8.777-17.24-13.169-32.563-13.169c-15.01,0-27.296,4.392-36.874,13.169
			c-9.578,8.785-15.803,21.632-18.676,38.55l-1.916,11.972H5197.507z M5152.014,1334.416l-12.451-21.549l63.691-40.705
			l15.324,26.817L5152.014,1334.416z"/>
		<path d="M5398.633,1473.291l34.958-197.777h31.606l-49.803,284.454h-24.423l-1.916-21.071
			c-7.984,8.942-16.761,15.563-26.338,19.874s-19.956,6.465-31.127,6.465c-22.986,0-39.829-7.019-50.521-21.071
			c-10.7-14.044-13.97-32.563-9.817-55.55l10.056-55.55c4.146-24.258,13.566-43.017,28.254-56.269
			c14.681-13.244,33.521-19.874,56.508-19.874c6.382,0,12.847,0.801,19.395,2.395c6.54,1.601,12.211,3.831,17,6.704l-10.536,22.986
			c-3.831-1.594-7.984-2.791-12.451-3.591c-4.475-0.793-9.099-1.197-13.888-1.197c-15.01,0-26.817,4.07-35.437,12.211
			c-8.62,8.141-14.366,20.352-17.24,36.634l-10.056,55.55c-2.559,15.968-0.801,28.097,5.268,36.395
			c6.061,8.305,16.117,12.451,30.169,12.451c15.96,0,29.047-5.425,39.268-16.282
			C5387.775,1510.33,5394.802,1494.362,5398.633,1473.291z"/>
		<path d="M5487.22,1486.7l8.62-51.24c4.789-25.216,14.845-44.61,30.169-58.184c15.324-13.566,35.437-20.353,60.339-20.353
			c25.538,0,44.296,7.026,56.269,21.071c11.972,14.052,15.721,33.208,11.253,57.465l-8.62,51.24
			c-4.789,25.224-14.845,44.618-30.169,58.184c-15.324,13.573-35.437,20.352-60.339,20.352c-25.545,0-44.296-7.019-56.269-21.071
			C5486.502,1530.121,5482.746,1510.966,5487.22,1486.7z M5613.645,1486.7l8.62-51.24c2.873-16.917,1.115-29.69-5.268-38.31
			c-6.39-8.62-17.404-12.93-33.043-12.93c-15.646,0-28.254,4.31-37.831,12.93c-9.578,8.62-15.803,21.393-18.676,38.31l-8.62,51.24
			c-2.873,16.925-1.122,29.69,5.268,38.311c6.383,8.62,17.397,12.93,33.043,12.93c15.638,0,28.254-4.31,37.831-12.93
			C5604.545,1516.391,5610.771,1503.625,5613.645,1486.7z"/>
		<path d="M5827.218,1481.911l21.07-119.72h31.606l-34.958,197.777h-24.423l-2.395-21.071c-7.662,8.62-16.604,15.167-26.817,19.634
			c-10.221,4.467-21.071,6.704-32.564,6.704c-22.35,0-38.475-6.779-48.367-20.352c-9.899-13.566-12.93-32.325-9.099-56.269
			l22.507-126.424h31.606l-22.507,126.424c-2.874,16.282-1.519,28.493,4.07,36.634c5.582,8.141,15.242,12.211,28.972,12.211
			c15.639,0,28.972-5.028,39.986-15.084C5816.922,1512.32,5824.023,1498.837,5827.218,1481.911z"/>
		<path d="M5909.1,1559.969l50.282-284.454h31.606l-36.395,206.397c-3.195,17.239-1.437,30.813,5.268,40.705
			c6.704,9.899,17.397,14.845,32.085,14.845c15.002,0,27.131-4.146,36.395-12.451c9.256-8.298,15.16-20.427,17.719-36.395
			l10.057-55.071c2.873-16.282,1.354-28.568-4.549-36.874c-5.912-8.298-15.729-12.451-29.451-12.451
			c-4.153,0-8.463,0.479-12.93,1.437c-4.475,0.958-9.099,2.559-13.888,4.789l-8.62-22.507c7.019-3.831,13.962-6.622,20.831-8.38
			c6.861-1.75,13.962-2.634,21.31-2.634c22.665,0,39.104,6.869,49.325,20.592c10.213,13.73,13.409,32.407,9.578,56.029
			l-10.057,55.071c-4.153,23.308-13.573,41.902-28.254,55.79c-14.688,13.887-33.042,20.831-55.071,20.831
			c-11.493,0-21.714-2.319-30.648-6.944c-8.941-4.624-15.646-10.932-20.113-18.916l-10.057,20.592H5909.1z"/>
		<path d="M6124.591,1559.969l49.803-284.454H6206l-49.803,284.454H6124.591z"/>
		<path d="M6228.505,1486.7l8.62-51.24c4.789-25.216,14.845-44.61,30.169-58.184c15.324-13.566,35.437-20.353,60.339-20.353
			c25.538,0,44.296,7.026,56.269,21.071c11.972,14.052,15.721,33.208,11.253,57.465l-8.62,51.24
			c-4.789,25.224-14.845,44.618-30.169,58.184c-15.324,13.573-35.437,20.352-60.339,20.352c-25.545,0-44.296-7.019-56.269-21.071
			C6227.787,1530.121,6224.031,1510.966,6228.505,1486.7z M6354.93,1486.7l8.62-51.24c2.873-16.917,1.115-29.69-5.268-38.31
			c-6.39-8.62-17.404-12.93-33.043-12.93c-15.646,0-28.254,4.31-37.831,12.93c-9.578,8.62-15.803,21.393-18.676,38.31l-8.62,51.24
			c-2.873,16.925-1.122,29.69,5.268,38.311c6.383,8.62,17.397,12.93,33.043,12.93c15.638,0,28.254-4.31,37.831-12.93
			C6345.831,1516.391,6352.056,1503.625,6354.93,1486.7z"/>
		<path d="M6491.882,1362.192l2.395,21.07c7.662-8.62,16.596-15.159,26.817-19.634c10.213-4.467,21.071-6.705,32.563-6.705
			c22.665,0,38.947,6.869,48.846,20.592c9.892,13.73,12.765,32.407,8.62,56.029l-22.028,126.424h-31.606l22.029-126.424
			c2.873-16.282,1.594-28.493-3.831-36.634c-5.433-8.141-15.167-12.211-29.212-12.211c-15.646,0-28.897,5.028-39.747,15.084
			c-10.857,10.057-17.883,23.547-21.07,40.465l-21.071,119.72h-31.606l34.479-197.777H6491.882z"/>
		<path d="M6709.766,1362.192l2.395,21.07c7.662-8.62,16.596-15.159,26.817-19.634c10.213-4.467,21.071-6.705,32.563-6.705
			c22.665,0,38.947,6.869,48.846,20.592c9.892,13.73,12.765,32.407,8.62,56.029l-22.028,126.424h-31.606l22.029-126.424
			c2.873-16.282,1.594-28.493-3.831-36.634c-5.433-8.141-15.167-12.211-29.212-12.211c-15.646,0-28.897,5.028-39.747,15.084
			c-10.857,10.057-17.883,23.547-21.07,40.465l-21.071,119.72h-31.606l34.479-197.777H6709.766z"/>
		<path d="M6875.93,1488.137l9.099-52.677c4.467-25.216,14.366-44.61,29.69-58.184c15.324-13.566,35.272-20.353,59.86-20.353
			c25.216,0,43.735,7.108,55.55,21.31c11.808,14.209,15.481,33.282,11.015,57.226c-1.602,9.264-2.873,16.843-3.831,22.747
			c-0.958,5.911-2.08,11.418-3.353,16.521h-124.029l-2.395,13.409c-2.873,16.926-0.883,29.376,5.986,37.353
			c6.862,7.984,19.073,11.972,36.634,11.972c6.061,0,13.169-1.033,21.311-3.113c8.141-2.073,18.594-5.507,31.366-10.296
			l9.099,25.859c-15.324,6.39-27.461,10.536-36.395,12.451c-8.941,1.916-18.197,2.873-27.775,2.873
			c-27.461,0-47.334-6.704-59.621-20.113C6875.848,1531.715,6871.777,1512.724,6875.93,1488.137z M7008.101,1447.432l1.916-11.972
			c2.873-16.917,1.114-29.765-5.268-38.55c-6.391-8.777-17.24-13.169-32.564-13.169c-15.01,0-27.296,4.392-36.874,13.169
			c-9.578,8.785-15.803,21.632-18.676,38.55l-1.916,11.972H7008.101z"/>
		<path d="M7195.339,1356.924c13.408,0,24.341,2.956,32.803,8.859c8.456,5.911,14.441,14.606,17.958,26.099
			c7.977-11.171,17.794-19.792,29.451-25.86c11.65-6.061,24.184-9.099,37.593-9.099c20.748,0,35.512,6.869,44.296,20.592
			c8.777,13.73,11.089,32.564,6.943,56.508l-22.028,125.945h-31.605l22.507-126.424c2.873-16.596,1.99-28.89-2.634-36.874
			c-4.632-7.976-13.012-11.972-25.141-11.972c-15.011,0-27.94,5.028-38.79,15.084c-10.856,10.057-17.883,23.547-21.07,40.465
			l-21.07,119.72h-31.606l22.508-126.424c2.873-16.596,1.99-28.89-2.634-36.874c-4.632-7.976-13.013-11.972-25.142-11.972
			c-15.01,0-27.939,5.028-38.789,15.084c-10.857,10.057-17.883,23.547-21.071,40.465l-21.07,119.72h-31.605l34.958-197.777h24.423
			l2.395,20.592c7.34-8.298,16.042-14.681,26.099-19.155C7173.071,1359.161,7183.846,1356.924,7195.339,1356.924z"/>
		<path d="M7411.308,1488.137l9.1-52.677c4.467-25.216,14.366-44.61,29.69-58.184c15.324-13.566,35.272-20.353,59.859-20.353
			c25.216,0,43.735,7.108,55.55,21.31c11.808,14.209,15.481,33.282,11.015,57.226c-1.602,9.264-2.873,16.843-3.831,22.747
			c-0.958,5.911-2.08,11.418-3.353,16.521h-124.029l-2.395,13.409c-2.873,16.926-0.883,29.376,5.986,37.353
			c6.861,7.984,19.072,11.972,36.634,11.972c6.061,0,13.169-1.033,21.311-3.113c8.141-2.073,18.594-5.507,31.366-10.296
			l9.099,25.859c-15.324,6.39-27.461,10.536-36.395,12.451c-8.941,1.916-18.197,2.873-27.775,2.873
			c-27.46,0-47.334-6.704-59.62-20.113C7411.226,1531.715,7407.155,1512.724,7411.308,1488.137z M7543.479,1447.432l1.916-11.972
			c2.873-16.917,1.114-29.765-5.268-38.55c-6.391-8.777-17.24-13.169-32.564-13.169c-15.01,0-27.296,4.392-36.873,13.169
			c-9.578,8.785-15.804,21.632-18.677,38.55l-1.915,11.972H7543.479z"/>
		<path d="M7669.899,1362.192l2.395,21.07c7.662-8.62,16.596-15.159,26.816-19.634c10.214-4.467,21.071-6.705,32.564-6.705
			c22.664,0,38.946,6.869,48.846,20.592c9.892,13.73,12.765,32.407,8.619,56.029l-22.028,126.424h-31.605l22.028-126.424
			c2.873-16.282,1.594-28.493-3.831-36.634c-5.433-8.141-15.167-12.211-29.212-12.211c-15.646,0-28.897,5.028-39.747,15.084
			c-10.856,10.057-17.883,23.547-21.07,40.465l-21.071,119.72h-31.605l34.479-197.777H7669.899z"/>
		<path d="M7896.402,1316.698h24.423l-8.141,45.494h40.226l-4.788,26.817h-40.227l-19.634,110.142
			c-2.237,13.095-1.998,22.351,0.719,27.775c2.708,5.432,8.694,8.141,17.958,8.141c1.594,0,3.188-0.075,4.788-0.239
			c1.594-0.157,3.51-0.396,5.747-0.718l2.395,28.254c-2.56,0.314-5.351,0.554-8.381,0.718c-3.038,0.157-5.829,0.239-8.38,0.239
			c-19.155,0-32.564-5.268-40.227-15.803c-7.662-10.536-9.742-26.653-6.225-48.367l19.634-110.142h-40.227l4.789-26.817
			c18.512,0,31.045-2.709,37.592-8.141C7884.984,1348.626,7890.971,1336.175,7896.402,1316.698z"/>
	</g>
	<g>
		<rect x="3741.487" y="1787.589" fill="#FFFFFF" width="3181.17" height="678.718"/>
		<path fill="#EE2A49" d="M6930.522,2474.172h-3196.9v-694.447h3196.9V2474.172z M3749.352,2458.442h3165.44v-662.987h-3165.44
			V2458.442z"/>
	</g>
	<g>
		<path d="M4122.778,2160.63v-206.397h31.606v284.454h-24.423l-6.225-21.071c-6.39,8.62-14.209,15.167-23.465,19.634
			c-9.263,4.467-19.634,6.704-31.127,6.704c-22.672,0-40.151-6.861-52.438-20.592c-12.293-13.723-18.437-32.399-18.437-56.029
			v-55.071c0-23.944,6.465-42.695,19.395-56.268c12.93-13.566,31.045-20.352,54.353-20.352c5.747,0,11.411,0.562,17,1.676
			c5.582,1.123,11.411,2.798,17.479,5.028l-4.789,23.944c-5.746-1.272-10.535-2.155-14.366-2.634s-7.505-0.718-11.014-0.718
			c-15.324,0-26.899,4.153-34.719,12.451c-7.827,8.306-11.732,20.592-11.732,36.874v55.071c0,15.968,3.749,28.097,11.253,36.395
			c7.498,8.305,18.437,12.451,32.803,12.451c15.324,0,27.296-4.946,35.916-14.845
			C4118.469,2191.443,4122.778,2177.869,4122.778,2160.63z"/>
		<path d="M4213.764,2167.334v-53.156c0-24.58,6.779-43.817,20.352-57.705c13.566-13.888,32.803-20.831,57.705-20.831
			s44.132,6.944,57.705,20.831c13.565,13.887,20.352,33.125,20.352,57.705c0,8.62-0.082,15.968-0.239,22.029
			c-0.165,6.068-0.561,11.814-1.197,17.239H4245.37v13.888c0,16.925,4.07,29.294,12.211,37.113
			c8.141,7.827,21.146,11.732,39.028,11.732c6.383,0,13.806-1.115,22.268-3.352c8.455-2.23,18.272-5.582,29.451-10.057
			l11.972,26.338c-12.137,5.432-23.151,9.263-33.043,11.493c-9.899,2.23-20.113,3.352-30.648,3.352
			c-27.46,0-48.127-6.382-62.015-19.155C4220.708,2212.034,4213.764,2192.88,4213.764,2167.334z M4338.272,2126.151v-11.972
			c0-16.917-3.996-29.765-11.972-38.55c-7.984-8.777-19.477-13.169-34.479-13.169c-15.01,0-26.503,4.392-34.479,13.169
			c-7.983,8.785-11.972,21.632-11.972,38.55v11.972H4338.272z"/>
		<path d="M4431.65,2127.109c-6.705-5.104-11.493-10.693-14.367-16.761c-2.873-6.061-4.31-13.244-4.31-21.549
			c0-15.638,6.3-28.411,18.916-38.311c12.608-9.891,28.329-14.845,47.17-14.845c11.493,0,22.821,1.28,34,3.831
			c11.171,2.559,21.55,6.226,31.127,11.014l-12.451,26.338c-9.899-4.789-18.998-8.216-27.296-10.296
			c-8.306-2.072-16.604-3.112-24.902-3.112c-10.857,0-19.395,2.237-25.62,6.704c-6.225,4.475-9.338,10.535-9.338,18.197
			c0,5.111,1.197,9.503,3.591,13.169c2.395,3.674,6.622,7.265,12.69,10.774c3.188,1.916,8.216,4.55,15.085,7.902
			c6.861,3.352,11.089,5.35,12.69,5.986c22.343,10.857,37.592,20.996,45.733,30.409c8.141,9.42,12.212,20.832,12.212,34.24
			c0,16.282-6.465,29.211-19.395,38.789s-30.094,14.366-51.479,14.366c-10.221,0-20.592-1.04-31.127-3.113
			c-10.535-2.08-21.872-5.507-34-10.296l10.057-26.817c10.535,4.153,20.27,7.183,29.211,9.099
			c8.934,1.916,17.397,2.873,25.381,2.873c13.408,0,23.382-2.073,29.93-6.225c6.54-4.146,9.817-10.536,9.817-19.155
			c0-7.977-2.798-14.606-8.38-19.874c-5.589-5.268-17.479-12.369-35.676-21.31c-15.968-7.977-25.859-13.087-29.69-15.324
			C4437.396,2131.583,4434.201,2129.345,4431.65,2127.109z"/>
		<path d="M4734.298,2040.911l1.916,21.07c7.976-8.934,16.761-15.563,26.338-19.873c9.577-4.31,19.948-6.465,31.127-6.465
			c22.986,0,39.822,7.026,50.522,21.071c10.692,14.052,13.962,32.564,9.817,55.55l-10.057,55.55
			c-4.153,24.266-13.573,43.024-28.254,56.268c-14.688,13.251-33.521,19.874-56.508,19.874c-6.39,0-12.854-0.8-19.395-2.395
			c-6.547-1.601-12.211-3.831-17-6.704l10.535-22.986c3.831,1.602,7.977,2.799,12.451,3.592c4.467,0.801,9.099,1.197,13.887,1.197
			c15.002,0,26.817-4.071,35.437-12.211c8.62-8.141,14.367-20.353,17.24-36.634l10.057-55.55c2.551-15.96,0.793-28.089-5.268-36.395
			c-6.068-8.298-16.125-12.451-30.169-12.451c-15.968,0-29.055,5.432-39.268,16.282c-10.221,10.857-17.24,26.817-21.071,47.888
			l-34.958,197.777h-31.606l49.804-284.454H4734.298z"/>
		<path d="M4898.069,2166.855l9.099-52.677c4.467-25.216,14.366-44.61,29.69-58.184c15.324-13.566,35.272-20.352,59.86-20.352
			c25.216,0,43.735,7.108,55.55,21.31c11.807,14.209,15.481,33.282,11.014,57.226c-1.602,9.264-2.874,16.843-3.831,22.747
			c-0.958,5.911-2.08,11.418-3.352,16.521h-124.03l-2.395,13.409c-2.873,16.926-0.883,29.376,5.986,37.353
			c6.862,7.984,19.073,11.972,36.634,11.972c6.061,0,13.169-1.033,21.311-3.113c8.141-2.073,18.594-5.507,31.366-10.296
			l9.099,25.859c-15.324,6.39-27.46,10.536-36.395,12.451c-8.941,1.916-18.197,2.873-27.775,2.873
			c-27.461,0-47.334-6.704-59.621-20.113C4897.987,2210.433,4893.917,2191.443,4898.069,2166.855z M5030.24,2126.151l1.916-11.972
			c2.874-16.917,1.115-29.765-5.268-38.55c-6.39-8.777-17.24-13.169-32.563-13.169c-15.01,0-27.296,4.392-36.874,13.169
			c-9.578,8.785-15.803,21.632-18.676,38.55l-1.916,11.972H5030.24z M4984.747,2013.135l-12.451-21.549l63.691-40.705l15.324,26.817
			L4984.747,2013.135z"/>
		<path d="M5156.66,2040.911l2.874,24.422c7.662-9.255,16.282-16.521,25.859-21.788c9.578-5.268,19.313-7.902,29.211-7.902
			c6.705,0,12.848,0.562,18.437,1.676c5.582,1.123,10.61,2.634,15.085,4.549l-13.888,30.169c-4.475-2.23-9.024-3.906-13.648-5.028
			c-4.632-1.115-9.181-1.676-13.648-1.676c-15.324,0-28.336,6.944-39.029,20.832c-10.7,13.887-18.437,34.24-23.226,61.057
			l-15.803,91.466h-31.606l34.958-197.777H5156.66z"/>
		<path d="M5252.431,2238.687l34.958-197.777h31.606l-34.958,197.777H5252.431z M5307.502,2012.657l-24.423-29.691l31.606-26.338
			l23.944,29.69L5307.502,2012.657z"/>
		<path d="M5356.825,2165.419l8.62-51.24c4.789-25.216,14.845-44.61,30.169-58.184c15.324-13.566,35.437-20.352,60.339-20.352
			c25.538,0,44.296,7.026,56.269,21.071c11.972,14.052,15.721,33.208,11.253,57.465l-8.62,51.24
			c-4.789,25.224-14.845,44.618-30.169,58.184c-15.324,13.573-35.437,20.352-60.339,20.352c-25.545,0-44.296-7.019-56.269-21.071
			C5356.106,2208.84,5352.35,2189.684,5356.825,2165.419z M5483.249,2165.419l8.62-51.24c2.873-16.917,1.115-29.69-5.268-38.31
			c-6.39-8.62-17.404-12.93-33.043-12.93c-15.646,0-28.254,4.31-37.831,12.93c-9.578,8.62-15.803,21.393-18.676,38.31l-8.62,51.24
			c-2.873,16.925-1.122,29.69,5.268,38.311c6.383,8.62,17.397,12.93,33.043,12.93c15.638,0,28.254-4.31,37.831-12.93
			C5474.15,2195.109,5480.375,2182.344,5483.249,2165.419z"/>
		<path d="M5694.907,2152.01l34.958-197.777h31.606l-49.803,284.454h-24.423l-1.916-21.071
			c-7.984,8.942-16.761,15.563-26.338,19.874s-19.956,6.465-31.127,6.465c-22.986,0-39.829-7.019-50.521-21.071
			c-10.7-14.044-13.97-32.563-9.817-55.55l10.056-55.55c4.146-24.258,13.566-43.017,28.254-56.269
			c14.681-13.244,33.521-19.873,56.508-19.873c6.382,0,12.847,0.801,19.395,2.395c6.54,1.601,12.211,3.831,17,6.704l-10.536,22.986
			c-3.831-1.594-7.984-2.791-12.451-3.591c-4.475-0.793-9.099-1.197-13.888-1.197c-15.01,0-26.817,4.07-35.437,12.211
			c-8.62,8.141-14.366,20.352-17.24,36.634l-10.056,55.55c-2.559,15.968-0.801,28.097,5.268,36.395
			c6.061,8.305,16.117,12.451,30.169,12.451c15.96,0,29.047-5.425,39.268-16.282
			C5684.05,2189.049,5691.076,2173.081,5694.907,2152.01z"/>
		<path d="M5775.833,2238.687l34.958-197.777h31.606l-34.958,197.777H5775.833z M5830.904,2012.657l-24.423-29.691l31.606-26.338
			l23.944,29.69L5830.904,2012.657z"/>
		<path d="M5879.747,2167.334l10.057-55.071c4.145-23.3,13.566-41.902,28.254-55.789c14.681-13.888,33.042-20.831,55.071-20.831
			c11.493,0,21.707,2.32,30.648,6.944c8.934,4.632,15.638,10.939,20.113,18.916l10.057-20.592h24.423l-50.282,284.454h-31.606
			l36.395-206.397c3.188-17.24,1.437-30.806-5.268-40.705c-6.704-9.892-17.404-14.845-32.085-14.845
			c-15.01,0-27.139,4.152-36.395,12.451c-9.264,8.306-15.167,20.435-17.719,36.395l-10.057,55.071
			c-2.873,16.282-1.362,28.576,4.549,36.874c5.904,8.306,15.721,12.451,29.451,12.451c4.146,0,8.456-0.479,12.93-1.437
			c4.467-0.958,9.099-2.552,13.888-4.789l8.62,22.507c-7.026,3.831-13.97,6.622-20.831,8.38c-6.869,1.751-13.97,2.634-21.31,2.634
			c-22.672,0-39.111-6.861-49.325-20.592C5879.104,2209.64,5875.916,2190.964,5879.747,2167.334z"/>
		<path d="M6223.578,2160.63l21.07-119.72h31.606l-34.958,197.777h-24.423l-2.395-21.071c-7.662,8.62-16.604,15.167-26.817,19.634
			c-10.221,4.467-21.071,6.704-32.564,6.704c-22.35,0-38.475-6.779-48.367-20.352c-9.899-13.566-12.93-32.325-9.099-56.269
			l22.507-126.424h31.606l-22.507,126.424c-2.874,16.282-1.519,28.493,4.07,36.634c5.582,8.141,15.242,12.211,28.972,12.211
			c15.639,0,28.972-5.028,39.986-15.084C6213.281,2191.039,6220.382,2177.555,6223.578,2160.63z"/>
		<path d="M6313.122,2166.855l9.099-52.677c4.467-25.216,14.366-44.61,29.69-58.184c15.324-13.566,35.272-20.352,59.86-20.352
			c25.216,0,43.735,7.108,55.55,21.31c11.807,14.209,15.481,33.282,11.014,57.226c-1.602,9.264-2.874,16.843-3.831,22.747
			c-0.958,5.911-2.08,11.418-3.352,16.521h-124.03l-2.395,13.409c-2.873,16.926-0.883,29.376,5.986,37.353
			c6.862,7.984,19.073,11.972,36.634,11.972c6.061,0,13.169-1.033,21.311-3.113c8.141-2.073,18.594-5.507,31.366-10.296
			l9.099,25.859c-15.324,6.39-27.46,10.536-36.395,12.451c-8.941,1.916-18.197,2.873-27.775,2.873
			c-27.461,0-47.334-6.704-59.621-20.113C6313.039,2210.433,6308.969,2191.443,6313.122,2166.855z M6445.292,2126.151l1.916-11.972
			c2.874-16.917,1.115-29.765-5.268-38.55c-6.39-8.777-17.24-13.169-32.563-13.169c-15.01,0-27.296,4.392-36.874,13.169
			c-9.578,8.785-15.803,21.632-18.676,38.55l-1.916,11.972H6445.292z"/>
		<path d="M6572.191,2149.137c-21.714-11.808-35.52-22.104-41.423-30.888c-5.911-8.777-7.902-19.073-5.986-30.888
			c2.874-16.596,10.85-29.369,23.944-38.311c13.087-8.934,29.848-13.409,50.282-13.409c10.85,0,21.625,1.197,32.324,3.592
			c10.692,2.395,20.667,5.986,29.93,10.775l-13.888,26.338c-9.899-4.789-18.676-8.141-26.338-10.057s-15.489-2.873-23.465-2.873
			c-11.179,0-20.517,2.155-28.015,6.465c-7.505,4.31-11.897,10.139-13.169,17.479c-1.28,6.704-0.24,12.376,3.112,17
			c3.353,4.632,14.127,11.897,32.325,21.789c20.749,11.179,34.636,21.714,41.662,31.606c7.019,9.899,9.413,21.393,7.184,34.479
			c-2.874,16.282-11.254,28.972-25.141,38.071c-13.888,9.099-31.531,13.648-52.917,13.648c-10.535,0-21.235-1.122-32.085-3.352
			c-10.857-2.23-21.549-5.582-32.085-10.057l10.536-26.817c9.892,3.831,19.469,6.787,28.733,8.859
			c9.255,2.081,17.718,3.113,25.38,3.113c13.723,0,24.423-2.155,32.085-6.465c7.662-4.31,12.286-10.61,13.887-18.916
			c1.594-7.977,0-14.606-4.789-19.874S6588.788,2158.078,6572.191,2149.137z"/>
	</g>
	<g>
		<rect x="3302.031" y="1787.589" fill="#FFFFFF" width="83.151" height="678.718"/>
		<path fill="#EE2A49" d="M3393.046,2474.172h-98.88v-694.447h98.88V2474.172z M3309.896,2458.442h67.421v-662.988h-67.421V2458.442
			z"/>
	</g>
	<rect x="11216.27" y="-1935.163" fill="#FFFFFF" stroke="#EE2A49" stroke-width="10" width="226.515" height="431.482"/>
	<rect x="9069.205" y="-3064.783" fill="#FFFFFF" stroke="#EE2A49" stroke-width="10" width="3060.263" height="698.138"/>
	<text transform="matrix(1 0 0 1 9305.749 -2600.7791)" font-family="'UnistraB-Bold'" font-size="492.5814px">Eplouribousse</text>
	<rect x="12129.469" y="-3064.783" fill="#FFFFFF" stroke="#EE2A49" stroke-width="10" width="1836.216" height="698.138"/>
	<rect x="13965.684" y="-3064.783" fill="#FFFFFF" stroke="#EE2A49" stroke-width="10" width="85.53" height="698.138"/>
	<rect x="14051.214" y="-3064.783" fill="#FFFFFF" stroke="#EE2A49" stroke-width="10" width="234.997" height="698.138"/>
	
		<text transform="matrix(1 0 0 1 12323.7246 -2600.7791)" fill="#EE2A49" font-family="'UnistraSymbol-Regular'" font-size="492.5814px">´9ß</text>
	<rect x="9931.669" y="-2366.645" fill="#FFFFFF" stroke="#EE2A49" stroke-width="10" width="1231.74" height="431.482"/>
	<text transform="matrix(1 0 0 1 10077.8633 -2079.8687)" font-family="'UnistraB-Regular'" font-size="304.4384px">Utilitaire</text>
	<rect x="11163.408" y="-2366.645" fill="#FFFFFF" stroke="#EE2A49" stroke-width="10" width="3122.803" height="431.482"/>
	<text transform="matrix(1 0 0 1 11309.6045 -2079.8687)"><tspan x="0" y="0" font-family="'UnistraB-Regular'" font-size="304.4384px">pour le </tspan><tspan x="823.794" y="0" font-family="'UnistraB-Italic'" font-size="304.4384px">dédoublonnement</tspan></text>
	<rect x="11442.784" y="-1935.163" fill="#FFFFFF" stroke="#EE2A49" stroke-width="10" width="2022.369" height="431.482"/>
	<text transform="matrix(1 0 0 1 11588.9814 -1648.386)"><tspan x="0" y="0" font-family="'UnistraB-Regular'" font-size="304.4384px">des </tspan><tspan x="438.081" y="0" font-family="'UnistraB-Italic'" font-size="304.4384px">périodiques</tspan></text>
	<rect x="11163.408" y="-1935.163" fill="#FFFFFF" stroke="#EE2A49" stroke-width="10" width="52.861" height="431.482"/>
</g>
<g id="Infos">
</g>
<g id="Signature">
</g>
<g id="Repère_Bloc">
</g>
<g id="Repère_Texte">
</g>
</svg>
